<?xml version="1.0" standalone="no"?>
<!DOCTYPE svg PUBLIC "-//W3C//DTD SVG 20010904//EN"
 "http://www.w3.org/TR/2001/REC-SVG-20010904/DTD/svg10.dtd">
<svg version="1.0" xmlns="http://www.w3.org/2000/svg"
 width="1280.000000pt" height="640.000000pt" viewBox="0 0 1280.000000 640.000000"
 preserveAspectRatio="xMidYMid meet">

<g transform="translate(0.000000,640.000000) scale(0.100000,-0.100000)"
fill="#000000" stroke="none">
<path d="M8530 6314 c-30 -2 -192 -13 -360 -24 -639 -43 -935 -71 -1285 -120
-606 -87 -1128 -208 -1660 -384 -980 -326 -1763 -768 -2735 -1542 -297 -237
-594 -505 -681 -616 l-31 -38 49 21 c43 19 336 144 623 266 58 25 116 49 130
54 22 7 23 7 6 -4 -444 -285 -718 -508 -1081 -878 -709 -724 -1191 -1580
-1413 -2509 -31 -129 -93 -462 -87 -468 1 -2 32 42 68 97 93 142 212 304 342
466 739 922 1592 1486 2370 1565 61 6 136 15 168 18 l58 7 -224 95 c-124 52
-223 98 -221 101 2 3 25 9 51 12 26 3 93 20 148 37 169 52 637 119 1055 151
177 13 677 7 835 -11 705 -78 1307 -274 1845 -600 289 -175 478 -328 977 -791
556 -516 849 -719 1248 -867 326 -121 574 -165 925 -165 383 0 751 68 1125
208 710 265 1372 796 1687 1353 375 661 442 1506 171 2152 -33 79 -124 253
-129 247 -1 -1 6 -40 17 -87 85 -389 83 -838 -7 -1240 -95 -421 -272 -792
-554 -1160 -93 -121 -356 -384 -480 -480 -236 -183 -539 -350 -805 -446 -1210
-433 -2536 -35 -3312 996 -101 135 -168 243 -258 418 l-70 136 -90 48 c-426
227 -1016 410 -1555 482 -276 36 -359 41 -745 41 -402 0 -542 -9 -845 -54 -97
-14 -120 -15 -120 -4 0 7 2 13 3 13 2 0 69 14 148 31 660 140 1345 210 1909
195 413 -10 718 -50 1008 -132 51 -15 94 -25 96 -23 2 2 -2 33 -8 68 -14 78 9
69 -285 111 -845 118 -1706 99 -2531 -56 -356 -67 -677 -153 -1285 -345 -586
-184 -716 -228 -822 -273 -57 -24 -103 -41 -103 -37 0 3 27 21 60 40 32 18
110 74 172 123 62 49 173 132 247 186 74 53 225 164 335 246 443 330 634 462
891 618 857 520 1677 825 2885 1073 185 38 667 125 692 125 3 0 25 35 49 78
23 42 64 112 91 155 29 46 43 77 35 77 -26 0 -404 -51 -602 -81 -1670 -253
-3298 -1012 -4719 -2200 -227 -190 -413 -358 -716 -650 -442 -425 -557 -526
-577 -506 -8 9 17 54 53 98 22 26 140 167 263 315 298 358 404 475 622 690
220 216 340 321 684 600 733 594 1130 879 1618 1160 836 483 1635 781 2697
1008 365 77 823 161 1150 209 l156 23 119 86 c233 166 445 276 707 366 76 27
152 49 318 94 l45 12 -50 7 c-61 9 -429 18 -505 13z"/>
<path d="M9354 6235 c-208 -28 -380 -67 -559 -127 -1166 -392 -1944 -1511
-1902 -2733 10 -290 53 -532 143 -804 202 -613 627 -1150 1186 -1497 309 -191
706 -333 1093 -391 183 -27 581 -24 770 5 309 48 568 129 840 262 576 282
1047 768 1312 1354 221 488 297 1038 218 1569 -88 587 -365 1135 -785 1557
-425 427 -960 698 -1570 796 -142 22 -603 28 -746 9z m409 -152 c-40 -2 -106
-2 -145 0 -40 1 -8 3 72 3 80 0 112 -2 73 -3z m-264 -10 c-45 -4 -50 -8 -221
-181 -256 -259 -442 -460 -517 -559 -251 -331 -439 -627 -551 -868 -51 -108
-140 -336 -140 -356 0 -30 555 57 769 122 239 71 762 270 1230 468 79 34 146
60 148 58 9 -9 -765 -323 -1063 -430 -291 -106 -426 -143 -689 -187 -222 -37
-415 -61 -415 -52 0 15 108 288 148 373 104 222 284 511 497 799 125 168 114
156 473 533 l274 287 51 -2 52 -2 -46 -3z m501 -3 c30 -5 12 -6 -55 -3 -55 3
-102 7 -104 9 -8 7 114 3 159 -6z m201 -31 c467 -92 906 -315 1275 -646 l69
-62 -39 -16 c-21 -9 -40 -14 -43 -12 -2 3 11 10 28 16 l33 11 -40 41 c-21 23
-84 77 -139 122 -340 275 -766 469 -1198 547 -56 10 -90 19 -76 19 15 1 73 -8
130 -20z m-1307 -211 c-257 -261 -334 -363 -560 -741 -132 -221 -332 -615
-419 -827 -32 -80 -60 -147 -62 -149 -1 -2 -37 13 -79 33 -109 52 -193 139
-261 271 -28 55 -57 126 -64 158 -15 68 -22 51 104 245 80 123 115 159 59 60
-35 -62 -70 -158 -106 -287 l-25 -91 45 -89 c58 -118 141 -204 243 -254 41
-21 75 -36 77 -35 1 2 35 79 74 172 193 455 508 1007 741 1296 46 58 153 173
238 257 85 84 151 153 149 153 -3 0 -46 -11 -94 -25 -514 -147 -983 -460
-1319 -880 -67 -84 -191 -265 -204 -297 -6 -14 -10 -17 -10 -8 -1 21 114 194
208 310 338 423 794 727 1326 885 61 18 114 34 119 34 5 1 -76 -86 -180 -191z
m2957 -863 c62 -88 146 -229 197 -331 53 -106 136 -310 147 -359 3 -17 -14 24
-39 90 -67 176 -174 384 -275 536 -49 74 -101 147 -114 164 -23 28 -26 29 -51
16 -24 -14 -25 -15 -9 -33 9 -10 14 -18 11 -18 -3 0 -13 8 -22 19 -16 18 -15
19 15 39 l32 20 36 -47 c20 -25 52 -68 72 -96z m-871 121 c0 -7 -741 -328
-746 -323 -2 2 110 52 249 112 138 60 304 132 367 161 113 51 130 58 130 50z
m67 -318 c2 -15 -1 -18 -6 -10 -6 10 -30 4 -106 -27 -54 -23 -100 -40 -102
-38 -2 2 45 25 104 50 60 25 108 46 108 46 1 1 2 -9 2 -21z m-3605 -65 c2 -23
0 -39 -4 -37 -5 3 -7 29 -7 57 1 56 6 48 11 -20z m-28 -278 c20 -65 31 -116
26 -125 -12 -24 -39 -212 -51 -365 -11 -134 -7 -402 8 -489 6 -39 6 -39 -23
-32 -59 15 -206 78 -264 114 -55 34 -60 40 -59 72 l2 35 6 -34 c4 -25 15 -40
39 -54 l32 -19 0 59 c0 218 67 502 187 791 51 123 54 137 48 185 -14 99 -18
98 -72 -24 -28 -63 -54 -124 -58 -137 -4 -13 -9 -22 -11 -19 -6 6 28 91 84
211 l46 99 13 -79 c7 -43 28 -128 47 -189z m3393 254 c-58 -34 -1115 -444
-1123 -436 -2 2 103 44 234 93 130 49 383 148 562 220 305 124 370 148 327
123z m260 -61 c-3 -8 -6 -5 -6 6 -1 11 2 17 5 13 3 -3 4 -12 1 -19z m20 -250
c-2 -13 -4 -3 -4 22 0 25 2 35 4 23 2 -13 2 -33 0 -45z m-3896 -89 c-16 -46
-30 -80 -30 -74 -1 15 50 167 55 162 2 -2 -9 -41 -25 -88z m398 -160 c56 -56
95 -85 148 -110 52 -25 70 -38 66 -49 -37 -103 -88 -382 -100 -547 -3 -46 -9
-83 -12 -83 -18 0 -281 75 -281 80 0 4 51 -8 113 -25 182 -52 167 -52 167 -7
0 101 52 412 89 530 l18 59 -55 27 c-107 53 -203 144 -271 256 -11 19 -21 40
-21 45 0 6 15 -15 32 -45 18 -30 66 -89 107 -131z m4635 67 c19 -65 20 -99 2
-39 -20 61 -27 93 -22 93 3 0 12 -24 20 -54z m-2596 34 c-58 -34 -812 -270
-824 -257 -2 2 52 18 120 36 68 18 253 77 412 131 287 97 324 108 292 90z
m-2492 -136 c-13 -54 -27 -108 -29 -119 l-5 -20 -1 20 c0 11 10 64 24 118 14
54 25 100 25 104 0 3 2 4 5 1 3 -3 -6 -50 -19 -104z m3951 -36 c-2 -13 -4 -3
-4 22 0 25 2 35 4 23 2 -13 2 -33 0 -45z m1187 -74 c14 -65 27 -150 30 -189 5
-69 5 -69 -8 16 -12 78 -38 215 -53 279 -3 14 -3 22 1 19 3 -3 17 -60 30 -125z
m-3504 -24 c-14 -4 -34 -8 -45 -8 -16 0 -15 2 5 8 14 4 34 8 45 8 16 0 15 -2
-5 -8z m-1684 -131 c-9 -63 -18 -127 -20 -144 -2 -16 -2 2 0 40 3 79 24 228
31 221 2 -2 -3 -55 -11 -117z m1554 106 c-84 -17 -419 -28 -535 -18 -69 6 -26
8 185 10 151 1 295 6 320 11 25 5 56 10 70 10 14 0 -4 -6 -40 -13z m-633 -17
c-3 -8 -6 -5 -6 6 -1 11 2 17 5 13 3 -3 4 -12 1 -19z m-31 -134 c-39 -174 -84
-479 -73 -491 2 -2 115 -31 250 -65 135 -34 244 -64 242 -66 -2 -3 -117 24
-255 59 l-251 63 6 66 c11 104 34 258 55 355 36 171 42 196 46 192 3 -3 -6
-53 -20 -113z m3091 84 c-3 -8 -6 -5 -6 6 -1 11 2 17 5 13 3 -3 4 -12 1 -19z
m1150 -80 c-3 -8 -6 -5 -6 6 -1 11 2 17 5 13 3 -3 4 -12 1 -19z m100 -180 c-2
-24 -4 -7 -4 37 0 44 2 63 4 43 2 -21 2 -57 0 -80z m-5147 -132 c36 -23 104
-66 152 -95 76 -45 88 -56 92 -84 40 -249 111 -519 181 -689 6 -16 -1 -18 -76
-18 -71 0 -199 -21 -286 -46 -20 -6 -24 2 -56 103 -19 59 -37 124 -41 143 -8
50 -1 31 39 -105 20 -66 40 -123 44 -128 4 -4 22 -2 40 4 22 8 30 16 26 27
-85 221 -141 501 -152 754 l-6 148 -34 25 -33 26 0 -108 c0 -133 14 -289 40
-430 10 -60 21 -124 24 -143 6 -35 6 -35 -4 -5 -34 102 -70 403 -70 588 l0
119 28 -22 c15 -11 56 -40 92 -64z m5156 -87 c-6 -149 -19 -273 -42 -411 -6
-35 -8 -37 -56 -43 -27 -4 -51 -5 -54 -2 -3 2 17 7 45 11 l49 6 11 63 c23 134
30 209 37 375 4 94 9 172 12 172 3 0 2 -77 -2 -171z m-89 74 c-2 -16 -4 -5 -4
22 0 28 2 40 4 28 2 -13 2 -35 0 -50z m-4549 -303 c-1 -24 -1 -24 -5 -2 -4 18
-29 34 -116 76 -62 30 -121 61 -132 69 -11 9 42 -14 117 -51 124 -60 138 -69
136 -92z m4529 -12 c-3 -7 -5 -2 -5 12 0 14 2 19 5 13 2 -7 2 -19 0 -25z
m-3624 -24 c76 -16 134 -30 128 -32 -11 -4 -238 42 -286 58 -44 14 -6 8 158
-26z m-916 -127 c-2 -23 -3 -1 -3 48 0 50 1 68 3 42 2 -26 2 -67 0 -90z m406
39 c32 -10 56 -20 54 -23 -3 -2 -58 14 -123 36 -65 23 -119 41 -121 41 -6 0
-3 -476 3 -512 6 -35 10 -38 78 -64 168 -63 402 -192 636 -351 142 -97 370
-266 365 -271 -2 -2 -57 36 -122 85 -331 250 -658 445 -884 529 l-77 28 -6 44
c-3 25 -6 154 -6 287 l0 243 73 -27 c39 -15 98 -35 130 -45z m783 34 c138 -26
417 -70 452 -71 24 -2 24 -2 5 -6 -32 -6 -569 80 -582 93 -7 7 13 4 125 -16z
m-656 -75 c19 -7 28 -13 20 -13 -8 0 -31 6 -50 13 -19 7 -28 13 -20 13 8 0 31
-6 50 -13z m1320 -25 c74 -10 122 -18 107 -19 -29 -1 -264 27 -282 34 -23 8
48 2 175 -15z m-1128 -29 c78 -21 212 -53 297 -72 84 -18 149 -35 144 -36 -20
-7 -507 109 -575 137 -44 17 -9 10 134 -29z m1457 -7 c8 -7 -92 -3 -144 6 -36
6 -23 7 45 3 52 -3 97 -7 99 -9z m-2155 -306 l5 -47 -47 6 c-63 8 -70 17 -9
10 37 -4 47 -2 43 8 -3 8 -7 87 -10 177 l-5 163 9 -135 c5 -74 11 -156 14
-182z m2405 286 c7 -7 -121 -2 -184 6 -40 5 -21 6 60 3 66 -3 122 -7 124 -9z
m431 -24 c115 -7 107 -8 -60 -3 -107 3 -233 9 -280 13 -102 10 124 3 340 -10z
m-1511 -87 c84 -15 148 -29 143 -31 -10 -3 -284 44 -307 53 -26 10 21 3 164
-22z m3211 -16 c0 -7 -14 -56 -30 -109 -192 -615 -605 -1142 -1153 -1475 -141
-85 -430 -223 -443 -211 -2 3 33 19 79 37 214 87 461 234 652 388 119 96 324
305 416 423 194 249 354 557 444 853 15 49 25 90 23 92 -1 2 -22 0 -46 -5 -24
-4 -40 -4 -35 0 7 7 29 12 81 19 6 0 12 -5 12 -12z m-2946 -27 c33 -6 84 -15
111 -20 48 -9 48 -9 -13 -3 -78 6 -216 31 -183 32 13 1 51 -4 85 -9z m276 -39
c61 -11 4 -12 -65 -1 -41 6 -44 7 -15 8 19 0 55 -3 80 -7z m285 -31 c69 -7 69
-7 15 -8 -30 0 -100 6 -155 13 l-100 14 85 -6 c47 -3 117 -9 155 -13z m163
-17 c-15 -2 -42 -2 -60 0 -18 2 -6 4 27 4 33 0 48 -2 33 -4z m347 -12 c124 -7
126 -8 35 -8 -52 0 -153 3 -225 6 -124 7 -126 8 -35 8 52 0 154 -3 225 -6z
m75 -54 c0 -2 -19 -21 -42 -42 l-43 -40 40 43 c36 39 45 47 45 39z m-2920
-123 c69 -13 143 -30 165 -38 36 -13 41 -18 48 -58 4 -23 6 -50 4 -58 -2 -8
-7 10 -11 42 -7 48 -11 57 -32 61 -13 2 -24 2 -24 0 0 -2 20 -43 44 -91 32
-62 49 -113 61 -177 60 -328 115 -520 181 -633 14 -24 24 -46 21 -48 -2 -2
-23 32 -46 77 -27 53 -68 111 -121 168 -175 190 -310 390 -426 628 -41 83 -74
155 -74 158 0 8 40 2 210 -31z m-130 -307 c101 -178 212 -332 350 -485 102
-114 234 -234 245 -224 5 4 5 1 1 -5 -4 -7 -3 -13 2 -13 6 0 13 -7 16 -16 9
-25 -145 118 -252 233 -187 199 -358 456 -468 703 -30 67 -54 127 -54 133 0 7
25 -43 54 -111 30 -67 77 -164 106 -215z m655 134 c184 -91 398 -243 570 -406
66 -63 62 -60 -141 110 -139 116 -308 228 -439 292 -60 29 -113 53 -117 53 -4
0 -5 -30 -1 -67 3 -38 4 -66 1 -63 -3 3 -8 35 -12 73 -5 52 -4 67 7 67 7 0 67
-27 132 -59z m-104 -236 l12 -130 50 -70 c102 -141 239 -295 375 -418 102 -93
398 -314 414 -309 5 1 7 -2 4 -7 -7 -11 112 -103 171 -132 154 -75 -99 7 -301
98 -192 86 -432 237 -589 369 l-79 66 7 -34 c4 -18 4 -30 1 -27 -12 11 -34
153 -50 324 -9 94 -21 209 -26 256 -9 80 -12 177 -5 154 1 -5 9 -68 16 -140z
m1126 -171 c-3 -3 -12 -4 -19 -1 -8 3 -5 6 6 6 11 1 17 -2 13 -5z m-474 -61
c-7 -2 -21 -2 -30 0 -10 3 -4 5 12 5 17 0 24 -2 18 -5z m-250 -20 c-7 -2 -19
-2 -25 0 -7 3 -2 5 12 5 14 0 19 -2 13 -5z m3107 -217 c0 -2 -8 -10 -17 -17
-16 -13 -17 -12 -4 4 13 16 21 21 21 13z m-3377 -218 c60 -60 267 -192 426
-272 137 -69 292 -132 423 -172 32 -10 56 -19 54 -21 -6 -6 -111 27 -231 72
-276 103 -688 353 -721 437 -9 23 -10 27 -1 13 7 -11 29 -37 50 -57z m2431
-390 c26 -13 49 -18 70 -14 22 4 27 3 16 -4 -24 -15 -43 -12 -111 20 -35 17
-53 28 -39 24 14 -4 43 -15 64 -26z m-287 -63 c54 -14 107 -25 118 -26 17 -1
16 -2 -5 -9 -14 -4 -34 -8 -45 -8 l-20 0 20 6 c12 3 -22 16 -90 33 -60 15
-102 28 -93 28 10 1 61 -10 115 -24z m-744 -2 c-7 -2 -19 -2 -25 0 -7 3 -2 5
12 5 14 0 19 -2 13 -5z m490 0 c-7 -2 -19 -2 -25 0 -7 3 -2 5 12 5 14 0 19 -2
13 -5z m-808 -46 c164 -34 272 -47 487 -57 l183 -9 -195 5 c-234 5 -485 39
-615 84 -39 13 -15 9 140 -23z m1060 -12 c-27 -7 -61 -13 -75 -13 -14 0 0 6
30 13 72 17 110 16 45 0z m-180 -30 c-44 -8 -109 -13 -145 -13 -56 1 -51 2 34
9 54 4 103 10 110 13 6 2 27 4 46 4 19 0 -1 -6 -45 -13z"/>
<path d="M6890 4709 c-1176 -207 -1965 -443 -2735 -818 -481 -234 -894 -492
-1405 -876 -96 -72 -249 -184 -340 -250 -213 -153 -371 -276 -365 -285 2 -3
-1 -7 -8 -7 -16 0 -69 -34 -63 -40 2 -3 13 0 23 5 27 14 211 76 363 122 74 23
189 59 255 80 840 268 1220 364 1750 439 757 107 1591 100 2308 -19 65 -11
124 -20 131 -20 10 0 11 14 3 63 -6 34 -10 181 -11 326 l-1 263 -105 -6 c-58
-4 -154 -11 -215 -16 -60 -5 -213 -19 -340 -30 -126 -11 -277 -25 -335 -30
-58 -6 -152 -15 -210 -21 -543 -53 -1053 -135 -1625 -260 -331 -73 -687 -168
-746 -200 -22 -11 -49 -12 -49 -1 0 10 19 19 245 122 837 380 1851 674 2800
809 221 31 434 56 566 66 l85 7 18 72 c38 146 86 277 193 524 7 15 10 16 -187
-19z m-33 -565 c-3 -3 -12 -4 -19 -1 -8 3 -5 6 6 6 11 1 17 -2 13 -5z m-120
-470 c-3 -3 -12 -4 -19 -1 -8 3 -5 6 6 6 11 1 17 -2 13 -5z m-250 -20 c-3 -3
-12 -4 -19 -1 -8 3 -5 6 6 6 11 1 17 -2 13 -5z m-1289 -491 c-10 -2 -26 -2
-35 0 -10 3 -2 5 17 5 19 0 27 -2 18 -5z m555 0 c-7 -2 -21 -2 -30 0 -10 3 -4
5 12 5 17 0 24 -2 18 -5z"/>
<path d="M6680 4098 c-1086 -114 -2162 -389 -3095 -793 -172 -74 -282 -127
-230 -110 11 4 93 26 183 50 415 112 1089 243 1582 309 307 41 1117 119 1582
152 l98 7 4 31 c24 164 50 325 57 344 8 21 6 22 -44 21 -28 -1 -90 -6 -137
-11z"/>
</g>
</svg>
